<svg fill="none" height="1001" viewBox="0 0 1400 1001" width="1400" xmlns="http://www.w3.org/2000/svg" xmlns:xlink="http://www.w3.org/1999/xlink"><mask id="a" fill="#fff"><path clip-rule="evenodd" d="m516.261 636.679v363.321h-124.249" fill="#fff" fill-rule="evenodd"/></mask><path clip-rule="evenodd" d="m453.023 186.659s-29.965-56.702-54.762-7.737-133.15 371.63-18.808 425.617c114.343 53.987 281.547 24.336 281.547 24.336" fill="#fdfcfb" fill-rule="evenodd"/><path d="m453.023 186.659s-29.965-56.702-54.762-7.737-133.15 371.63-18.808 425.617c114.343 53.987 281.547 24.336 281.547 24.336" stroke="#008743" stroke-linecap="round" stroke-linejoin="round" stroke-width="1.5"/><path d="m633.956 360.364-102.976 6.605 118.764 210.893-89.112 246.042 114.32 72.844-1.115-36.44s77.57-84.106 136.559-273.658c58.99-189.553-176.44-226.286-176.44-226.286z" fill="#e3ddcf"/><path d="m720.866 552.757-70.285-12.553-17.736 7.652 16.899 30.007-18.36 50.693s75.131 30.542 117.295 113.467c3.482-6.971 7.001-14.267 10.558-21.888-11.352-61.798-38.371-167.378-38.371-167.378z" fill="#008743"/><path d="m1048.78 325.405h-327.705l22.478-196.626h327.707z" fill="#e3ddcf"/><path d="m1035.77 308.633h-327.707l22.477-196.627h327.71z" style="fill-rule:evenodd;clip-rule:evenodd;stroke:#626268;stroke-width:1.5;stroke-linecap:round;stroke-linejoin:round"/><path d="m894.335 383.178 8.523-74.546h-52.411l-8.522 74.546z" fill="#626268"/><path d="m900.763 818.884s-22.976-444.906-327.988-443.483l-144.771 35.592s-35.992 197.432 265.216 186.135l109.188 282.431 118.601-41.423z" fill="#e3ddcf"/><path d="m900.763 818.884s-22.976-444.906-327.988-443.483" stroke="#008743" stroke-linecap="round" stroke-linejoin="round" stroke-width="1.5"/><path d="m428.004 410.993s-35.992 197.432 265.216 186.134l109.188 282.432" stroke="#008743" stroke-linecap="round" stroke-linejoin="round" stroke-width="1.5"/><path d="m564.269 48.5838v53.7522l-66.577 16.367v-90.7101l66.577-16.3668z" fill="#e3ddcf"/><path d="m526.66 67.1809c.983 0 1.78-.7971 1.78-1.7804s-.797-1.7804-1.78-1.7804-1.781.7971-1.781 1.7804.798 1.7804 1.781 1.7804z" fill="#008743"/><path d="m554.001 67.1809c.984 0 1.781-.7971 1.781-1.7804s-.797-1.7804-1.781-1.7804c-.983 0-1.78.7971-1.78 1.7804s.797 1.7804 1.78 1.7804z" fill="#008743"/><path d="m545.979 76.022v-27.4387h13.743" stroke="#008743" stroke-linecap="round" stroke-linejoin="round" stroke-width="1.5"/><path d="m523.306 48.5847h13.743" stroke="#008743" stroke-linecap="round" stroke-linejoin="round" stroke-width="1.5"/><path d="m502.076 62.6421v9.5282c-5.139 0-9.305-4.1666-9.305-9.3063 0-.2856.013-.5679.039-.8471.521-5.7789 9.266-5.1772 9.266.6252z" fill="#e3ddcf"/><path d="m502.076 72.1703c-5.139 0-9.305-4.1666-9.305-9.3063" stroke="#008743" stroke-linecap="round" stroke-linejoin="round" stroke-width="1.5"/><path d="m528.552 76.366c5.201 0 9.417 4.2171 9.417 9.4192" stroke="#008743" stroke-linecap="round" stroke-linejoin="round" stroke-width="1.5"/><path d="m564.269 102.336-66.577 16.367" stroke="#008743" stroke-linecap="round" stroke-linejoin="round" stroke-width="1.5"/><path d="m545.98 76.0432-6.011 1.4776" stroke="#008743" stroke-linecap="round" stroke-linejoin="round" stroke-width="1.5"/><path d="m633.955 214.958v145.407l-205.952 50.628v-161.943c0-57.423 39.195-107.426 94.948-121.132h.001c26.737-6.572 55.011-.488 76.679 16.503 21.668 16.99 34.324 42.999 34.324 70.537z" fill="#00ab55"/><path clip-rule="evenodd" d="m502.076 57.9747c5.107-6.2704 8.745-13.605 10.647-21.4655 0 0 39.498 13.0239 55.695-8.7873 7.341-9.886 3.926-19.53294.481-25.23169-.52-.90373-1.475-1.46884-2.518-1.48968-1.042-.019708-2.019.50781-2.574 1.39064-1.603 2.80647-5.377 5.10843-14.215 1.79361-14.895-5.58642-45.893-3.765951-50.832 15.06382 0 0-21.964 6.1196-3.097 38.9947" fill="#e3ddcf" fill-rule="evenodd"/><g stroke-linecap="round" stroke-linejoin="round" stroke-width="1.5"><path d="m502.076 57.9747c5.107-6.2704 8.745-13.605 10.647-21.4655 0 0 39.498 13.0239 55.695-8.7873 7.341-9.886 3.926-19.53294.481-25.23169-.52-.90373-1.475-1.46884-2.518-1.48968-1.042-.019708-2.019.50781-2.574 1.39064-1.603 2.80647-5.377 5.10843-14.215 1.79361-14.895-5.58642-45.893-3.765951-50.832 15.06382 0 0-21.964 6.1196-3.097 38.9947" stroke="#008743"/><path d="m614.537 383.178h448.443" stroke="#626268"/><path d="m477.341 149.67s-84.893 69.729-106.229 182.429c-21.337 112.701 147.845 85.62 228.428 52.446" stroke="#00ab55"/><path d="m460.852 325.405s191.402-33.839 204.581 49.996" stroke="#626268"/><path d="m605.736 149.67s60.068 61.994 75.909 175.734c0 0 60.927 2.096 63.364 49.997" stroke="#626268"/></g><path d="m517.761 636.679c0-.828-.672-1.5-1.5-1.5-.829 0-1.5.672-1.5 1.5zm-1.5 363.321v1.5c.828 0 1.5-.67 1.5-1.5zm-124.249-1.5c-.828 0-1.5.672-1.5 1.5 0 .83.672 1.5 1.5 1.5zm122.749-361.821v363.321h3v-363.321zm1.5 361.821h-124.249v3h124.249z" fill="#008743" mask="url(#a)"/></svg>