<svg fill="none" height="1001" viewBox="0 0 1400 1001" width="1400" xmlns="http://www.w3.org/2000/svg"><path d="m184 1h506.185v970.011h-506.185z" fill="#fdfcfb" stroke="#e3ddcf"/><path d="m501.944 1000-317.944-28.989v-970.011l317.944 28.9889z" fill="#f6f4ef" stroke="#3e3e41"/><path d="m400.645 517.89c8.8 0 15.934-7.137 15.934-15.942 0-8.804-7.134-15.941-15.934-15.941s-15.933 7.137-15.933 15.941c0 8.805 7.133 15.942 15.933 15.942z" fill="#008743"/><path d="m1168.87 951.225v-30.483l-28.12 25.793-9.38-80.893-73.82 52.755-9.37-35.17-25.78 25.792v-42.205l-31.64 37.515-28.123-84.41-35.153 86.814-51.559-64.539-38.669 87.928v-42.206l-22.264 41.034-15.233-55.102-42.184 65.653-64.448-80.894-19.921 79.721-18.749-22.274-14.061 55.217h541.364l4.69-21.218z" fill="#008743"/><path d="m501.653 971.277h715.317" stroke="#008743" stroke-width="1.5"/><path clip-rule="evenodd" d="m944.097 151.551s-34.047-20.066-2.323-41.591c31.724-21.5247 52.874-1.459 52.874-1.459s20.422 5.727 20.782 17.274c0 0 9.12 10.088 6.2 19.574 0 0 11.41 29.916-19.27 39.401" fill="#e3ddcf" fill-rule="evenodd"/><path d="m944.097 151.551s-34.047-20.066-2.323-41.591c31.724-21.5247 52.874-1.459 52.874-1.459s20.422 5.727 20.782 17.274c0 0 9.12 10.088 6.2 19.574 0 0 11.41 29.916-19.27 39.401" stroke="#008743" stroke-width="1.5"/><path d="m1075.23 949.798v-282.378l-76.927-72.236-8.396 376.854h102.833z" fill="#e3ddcf"/><path d="m1055.49 411.663-128.09-8.779-23.291 164.194v404.961h118.971l-12.58-22.553z" fill="#e3ddcf"/><path d="m904.11 610.105v104.642c44.512 4.522 92.983-3.249 126.94-10.941l2.66-31.792z" fill="#008743"/><path d="m1023.08 972.04-12.58-22.553 44.99-537.822" stroke="#008743" stroke-width="1.5"/><path d="m908.55 287.572v126.777l179.51 44.143v-141.196c0-50.066-34.16-93.663-82.76-105.613-23.303-5.731-47.947-.425-66.833 14.388-18.886 14.814-29.917 37.491-29.917 61.5z" fill="#00ab55"/><path d="m943.659 148.006 1 19.095c0 14.303 13.61 26.757 32.971 30.17l41.03 10.735v-75.817l-34.117-6.015c-9.607-1.694-19.766-.126-27.551 4.252-7.786 4.379-13.333 10.483-13.333 17.58z" fill="#e3ddcf"/><path d="m944.096 162.743c0 15.641 10.673 29.262 25.855 32.995l32.169 7.912" stroke="#008743" stroke-width="1.5"/><path d="m976.876 158.729c.857 0 1.552-.695 1.552-1.553 0-.857-.695-1.552-1.552-1.552s-1.552.695-1.552 1.552c0 .858.695 1.553 1.552 1.553z" fill="#008743"/><path d="m953.046 158.729c.857 0 1.551-.695 1.551-1.553 0-.857-.694-1.552-1.551-1.552s-1.552.695-1.552 1.552c0 .858.695 1.553 1.552 1.553z" fill="#008743"/><g stroke="#008743" stroke-width="1.5"><path d="m960.037 166.436v-23.923h-11.978"/><path d="m979.799 142.514h-11.978"/><path d="m998.303 163.079c4.477 0 8.107-3.633 8.107-8.114"/><path d="m966.586 169.232c2.097 2.099 5.498 2.099 7.595 0" stroke-linecap="round" stroke-linejoin="round"/><path d="m960.037 166.456 5.239 1.288" stroke-linecap="round"/><path d="m944.096 135.866s16.98-2.171 21.18-10.397c0 0 5.319 8.573 13.152 7.843 0 0 4.551 9.304 12.573 7.662 0 0-.622 8.734 7.302 10.58"/><path d="m1002.36 189.128c4.06-.484 7.93-1.99 11.25-4.378" stroke-linecap="round" stroke-linejoin="round"/></g><path clip-rule="evenodd" d="m1002.13 196.244v26.771c-.1 10.027 7.09 18.642 16.97 20.326 3.7.793 7.56-.237 10.37-2.77 9.67-9.121 4.93-30.829-3.46-36.119.39-6.113-3.01-11.838-8.57-14.41" fill="#e3ddcf" fill-rule="evenodd"/><path d="m1002.13 196.244v26.771c-.1 10.027 7.09 18.642 16.97 20.326 3.7.793 7.56-.237 10.37-2.77 9.67-9.121 4.93-30.829-3.46-36.119.39-6.113-3.01-11.838-8.57-14.41" stroke="#008743" stroke-width="1.5"/><path d="m908.549 414.35-141.805 241.031s172.232 64.184 321.316 36.47v-261.934" fill="#00ab55"/><path d="m766.744 655.383s172.232 64.184 321.316 36.47" stroke="#008743" stroke-width="1.5"/><path d="m1055.49 239.675s51.56 44.766 58.13 102.774c0 0 9.75-151.13 13.03-157.697s8.75 24.636 8.75 24.636 40.48 13.671 19.69 43.222c0 0 56.28 175.118-67.03 192.63" stroke="#008743" stroke-width="1.5"/><path d="m944.098 222.046s-43.164 21.809-77.44 100.613c0 0-56.885-92.065-96.996-105.865-40.111-13.799-48.134-15.406-49.592-13.144-1.459 2.263 20.42 18.316 20.42 18.316s-10.939 34.103 22.608 40.765c0 0 5.17 146.027 68.951 166.458 63.78 20.43 120.997-63.48 120.997-63.48" stroke="#008743" stroke-width="1.5"/></svg>