<svg fill="none" height="1001" viewBox="0 0 1400 1001" width="1400" xmlns="http://www.w3.org/2000/svg"><path d="m184 1h506.185v970.011h-506.185z" fill="#fdfcfb" stroke="#008743"/><path d="m501.944 1000-317.944-28.989v-970.011l317.944 28.9889z" fill="#f6f4ef" stroke="#3e3e41"/><path d="m400.645 517.89c8.8 0 15.934-7.137 15.934-15.942 0-8.804-7.134-15.941-15.934-15.941s-15.933 7.137-15.933 15.941c0 8.805 7.133 15.942 15.933 15.942z" fill="#008743"/><path d="m1168.87 951.225v-30.483l-28.12 25.793-9.38-80.893-73.82 52.755-9.37-35.17-25.78 25.792v-42.205l-31.64 37.515-28.123-84.41-35.153 86.814-51.559-64.539-38.669 87.928v-42.206l-22.264 41.034-15.233-55.102-42.184 65.653-64.448-80.894-19.921 79.721-18.749-22.274-14.061 55.217h541.364l4.69-21.218z" fill="#008743"/><path d="m501.653 971.277h715.317" stroke="#008743" stroke-width="1.5"/><path clip-rule="evenodd" d="m840.438 148.045s-34.047-20.066-2.323-41.591c31.724-21.5245 52.874-1.459 52.874-1.459s20.42 5.728 20.785 17.275c0 0 9.116 10.087 6.199 19.573 0 0 11.409 29.916-19.274 39.402" fill="#e3ddcf" fill-rule="evenodd"/><path d="m840.438 148.045s-34.047-20.066-2.323-41.591c31.724-21.5245 52.874-1.459 52.874-1.459s20.42 5.728 20.785 17.275c0 0 9.116 10.087 6.199 19.573 0 0 11.409 29.916-19.274 39.402" stroke="#008743" stroke-width="1.5"/><path d="m971.575 946.293v-282.378l-76.931-72.237-8.396 376.855h102.83z" fill="#e3ddcf"/><path d="m951.829 408.158-128.087-8.779-23.292 164.193v404.961h118.972l-12.579-22.553z" fill="#e3ddcf"/><path d="m800.451 606.599v104.642c44.512 4.522 92.983-3.249 126.942-10.94l2.659-31.792z" fill="#008743"/><path d="m919.422 968.534-12.579-22.553 44.987-537.822" stroke="#008743" stroke-width="1.5"/><path d="m804.891 284.066v126.778l179.507 44.142v-141.196c0-50.066-34.162-93.663-82.756-105.613-23.304-5.73-47.948-.425-66.834 14.388-18.885 14.814-29.917 37.491-29.917 61.501z" fill="#00ab55"/><path d="m840 144.5 1 19.096c0 14.302 13.61 26.756 32.971 30.17l41.029 10.734v-75.817l-34.116-6.015c-9.607-1.694-19.766-.126-27.551 4.253-7.785 4.378-13.333 10.482-13.333 17.579z" fill="#e3ddcf"/><path d="m840.438 159.237c-.001 15.641 10.672 29.262 25.854 32.995l32.174 7.912" stroke="#008743" stroke-width="1.5"/><path d="m873.217 155.223c.857 0 1.552-.695 1.552-1.552 0-.858-.695-1.553-1.552-1.553s-1.551.695-1.551 1.553c0 .857.694 1.552 1.551 1.552z" fill="#008743"/><path d="m849.387 155.223c.857 0 1.552-.695 1.552-1.552 0-.858-.695-1.553-1.552-1.553s-1.552.695-1.552 1.553c0 .857.695 1.552 1.552 1.552z" fill="#008743"/><g stroke="#008743" stroke-width="1.5"><path d="m856.379 162.93v-23.923h-11.979"/><path d="m876.14 139.009h-11.978"/><path d="m894.644 159.573c4.479 0 8.11-3.633 8.11-8.114"/><path d="m862.927 165.727c2.097 2.098 5.498 2.098 7.595 0" stroke-linecap="round" stroke-linejoin="round"/><path d="m856.378 162.95 5.239 1.288" stroke-linecap="round"/><path d="m840.438 132.361s16.979-2.172 21.179-10.398c0 0 5.319 8.573 13.152 7.844 0 0 4.551 9.303 12.573 7.661 0 0-.622 8.734 7.302 10.58"/><path d="m898.699 185.622c4.06-.484 7.932-1.99 11.252-4.378" stroke-linecap="round" stroke-linejoin="round"/></g><path clip-rule="evenodd" d="m898.467 192.738v26.772c-.099 10.027 7.096 18.641 16.976 20.326 3.701.792 7.557-.238 10.371-2.771 9.663-9.121 4.923-30.828-3.464-36.118.392-6.113-3.013-11.839-8.57-14.411" fill="#e3ddcf" fill-rule="evenodd"/><path d="m898.467 192.738v26.772c-.099 10.027 7.096 18.641 16.976 20.326 3.701.792 7.557-.238 10.371-2.771 9.663-9.121 4.923-30.828-3.464-36.118.392-6.113-3.013-11.839-8.57-14.411" stroke="#008743" stroke-width="1.5"/><path d="m804.891 410.845-141.806 241.031s172.232 64.184 321.313 36.47v-261.935" fill="#00ab55"/><path d="m663.085 651.878s172.232 64.184 321.313 36.47" stroke="#008743" stroke-width="1.5"/><path d="m951.83 236.169s51.56 44.767 58.13 102.775c0 0 9.75-151.131 13.03-157.698s8.75 24.637 8.75 24.637 40.48 13.67 19.69 43.221c0 0 56.28 175.119-67.032 192.63" stroke="#008743" stroke-width="1.5"/><path d="m840.439 218.54s-43.163 21.81-77.44 100.613c0 0-56.885-92.065-96.996-105.865-40.111-13.799-48.134-15.406-49.592-13.143-1.459 2.263 20.42 18.315 20.42 18.315s-10.939 34.104 22.608 40.766c0 0 5.17 146.027 68.951 166.457 63.78 20.431 120.998-63.48 120.998-63.48" stroke="#008743" stroke-width="1.5"/></svg>