<svg fill="none" height="93" viewBox="0 0 93 93" width="93" xmlns="http://www.w3.org/2000/svg"><path d="m78.7284 16.2094c-5.9275-2.7198-12.2838-4.7236-18.9298-5.8713-.121-.0221-.2419.0332-.3043.144-.8175 1.4539-1.723 3.3507-2.3571 4.8416-7.1481-1.0702-14.2596-1.0702-21.2612 0-.6342-1.524-1.5726-3.3877-2.3938-4.8416-.0623-.1071-.1832-.1624-.3043-.144-6.6423 1.144-12.9986 3.1479-18.9298 5.8713-.0513.0222-.0953.0591-.1245.107-12.05671 18.0124-15.35953 35.5821-13.739277 52.9339.007331.0849.054985.1661.120969.2177 7.954638 5.8417 15.660108 9.3882 23.222408 11.7389.121.0369.2493-.0074.3263-.1071 1.7889-2.4428 3.3835-5.0187 4.7507-7.7275.0807-.1586.0037-.3468-.1612-.4096-2.5294-.9594-4.9378-2.1293-7.2545-3.4577-.1833-.107-.198-.3691-.0294-.4946.4875-.3653.9752-.7455 1.4407-1.1293.0842-.07.2016-.0848.3006-.0406 15.2201 6.949 31.6976 6.949 46.738 0 .0991-.0479.2164-.0331.3043.037.4657.3838.9532.7676 1.4444 1.1329.1686.1255.1576.3876-.0257.4946-2.3167 1.3542-4.7252 2.4983-7.2582 3.4541-.1649.0627-.2382.2546-.1575.4132 1.3965 2.705 2.9912 5.2809 4.747 7.7239.0734.1033.2053.1476.3263.1107 7.599-2.3507 15.3044-5.8972 23.259-11.7389.0697-.0516.1137-.1291.1211-.214 1.9391-20.0606-3.2479-37.4862-13.7503-52.9339-.0256-.0516-.0695-.0885-.1209-.1107zm-47.6508 42.4755c-4.5823 0-8.358-4.2069-8.358-9.3734 0-5.1664 3.7025-9.3733 8.358-9.3733 4.692 0 8.4312 4.2438 8.3578 9.3733 0 5.1665-3.7024 9.3734-8.3578 9.3734zm30.9021 0c-4.5822 0-8.3579-4.2069-8.3579-9.3734 0-5.1664 3.7024-9.3733 8.3579-9.3733 4.6921 0 8.4311 4.2438 8.3579 9.3733 0 5.1665-3.6658 9.3734-8.3579 9.3734z" fill="#fff"/></svg>