<svg fill="none" height="93" viewBox="0 0 93 93" width="93" xmlns="http://www.w3.org/2000/svg"><g clip-rule="evenodd" fill-rule="evenodd"><path d="m91.14 47.5568c0-3.2973-.2959-6.4677-.8455-9.5113h-43.7945v17.987h25.0255c-1.078 5.8125-4.3541 10.7373-9.2789 14.0345v11.6673h15.0279c8.7928-8.0952 13.8655-20.0161 13.8655-34.1775z" fill="#4285f4"/><path d="m46.5 93c12.555 0 23.0809-4.1639 30.7746-11.2657l-15.028-11.6673c-4.1639 2.79-9.4902 4.4387-15.7466 4.4387-12.1111 0-22.3623-8.1798-26.0189-19.1707h-15.53518v12.0477c7.65138 15.1971 23.37678 25.6173 41.55408 25.6173z" fill="#34a853"/><path d="m20.4811 55.335c-.93-2.79-1.4584-5.7702-1.4584-8.835s.5284-6.045 1.4584-8.835v-12.0477h-15.53519c-3.14932 6.2775-4.94591 13.3793-4.94591 20.8827s1.79659 14.6052 4.94591 20.8827z" fill="#fbbc05"/><path d="m46.5 18.4943c6.8271 0 12.9566 2.3462 17.7757 6.9539l13.337-13.3371c-8.0529-7.50337-18.5788-12.1111-31.1127-12.1111-18.1773 0-33.9027 10.4202-41.55408 25.6173l15.53518 12.0477c3.6566-10.9909 13.9078-19.1707 26.0189-19.1707z" fill="#ea4335"/></g></svg>